<!--?xml version="1.0" encoding="utf-8"?-->
<!-- Generator: Adobe Illustrator 22.1.0, SVG Export Plug-In . SVG Version: 6.00 Build 0)  -->
<svg version="1.1" id="_x32_" xmlns="http://www.w3.org/2000/svg" xmlns:xlink="http://www.w3.org/1999/xlink" x="0px" y="0px" viewBox="0 0 800 794.4" style="enable-background:new 0 0 800 794.4;" xml:space="preserve">
<style type="text/css">
	.stblack{fill:#000000;}
</style>
<g>
	<polygon points="765.9,361 681.5,367.6 650.3,371.8 681.7,369.8 	"></polygon>
	<polygon points="766.1,325.6 684,339.8 653.8,346.7 684.4,341.9 	"></polygon>
	<polygon points="751.9,289.7 671.6,312.7 642.3,322.8 672.3,314.7 	"></polygon>
	<polygon points="736.5,256 658.9,290.2 630.8,304.5 659.8,292.2 	"></polygon>
	<polygon points="727.9,229.2 654.7,266.8 628.3,282.2 655.7,268.6 	"></polygon>
	<polygon points="693.9,182.6 627.4,231.5 603.7,251.1 628.7,233.2 	"></polygon>
	<polygon points="670.5,151.2 609,206.2 587.4,227.9 610.5,207.8 	"></polygon>
	<polygon points="638,116.5 583.1,179.9 564,204.6 584.7,181.3 	"></polygon>
	<polygon points="610.7,103.7 560.8,169.4 543.6,194.8 562.5,170.6 	"></polygon>
	<polygon points="585.1,74.1 541.2,145.2 526.3,172.5 543,146.3 	"></polygon>
	<polygon points="539.5,65 505,141.5 493.8,170.6 507,142.4 	"></polygon>
	<polygon points="511.7,44.8 484.9,124.4 476.6,154.6 487,125.1 	"></polygon>
	<polygon points="468,28.3 452.2,110.1 447.9,140.8 454.3,110.5 	"></polygon>
	<polygon points="435,37.1 424.8,119.1 422.6,149.7 426.9,119.3 	"></polygon>
	<polygon points="404.7,30.7 400,113.3 399.9,144 402.1,113.4 	"></polygon>
	<polygon points="364.6,23.4 371.1,106.8 375.2,137.6 373.3,106.6 	"></polygon>
	<polygon points="332.4,32.9 344.5,115.2 350.6,145.4 346.6,114.8 	"></polygon>
	<polygon points="301.4,44.5 321.5,124.7 330.6,154.1 323.6,124.2 	"></polygon>
	<polygon points="265.1,51.5 293.4,130.6 305.6,159.4 295.4,129.8 	"></polygon>
	<polygon points="238.3,65 271.6,141.6 285.5,169.4 273.6,140.8 	"></polygon>
	<polygon points="206.6,85 249.2,156.2 266.4,181.8 251,155.1 	"></polygon>
	<polygon points="184.9,105.9 232.8,175.5 252,200.4 234.6,174.3 	"></polygon>
	<polygon points="155.7,122.3 208.9,185.7 230,208.1 210.5,184.3 	"></polygon>
	<polygon points="136.4,151.5 195.3,209.4 218.3,229.7 196.8,207.8 	"></polygon>
	<polygon points="104.7,188.5 171.5,239.2 197.3,256.7 172.8,237.5 	"></polygon>
	<polygon points="74.8,226.3 146.4,267.3 173.7,281.1 147.4,265.5 	"></polygon>
	<polygon points="56.1,268 134.3,300.2 164,310.6 135.1,298.2 	"></polygon>
	<polygon points="43.5,314.7 124.8,336.2 155.4,342.5 125.3,334.1 	"></polygon>
	<polygon points="35.6,359.6 118.6,369.9 149.7,372.1 118.9,367.8 	"></polygon>
	<polygon points="29,403.3 113.1,407.1 144.4,406.9 113.2,405 	"></polygon>
	<polygon points="28.8,443.3 112.8,436.7 143.9,432.6 112.6,434.6 	"></polygon>
	<polygon points="42.1,475.8 124.9,460.8 155.3,453.6 124.5,458.7 	"></polygon>
	<polygon points="53.5,522.2 131.8,497 160.4,486 131.2,495 	"></polygon>
	<polygon points="69.2,559.2 144.7,526.4 172.1,512.8 143.8,524.5 	"></polygon>
	<polygon points="92.4,598.5 163,556.3 188.3,539.2 161.9,554.5 	"></polygon>
	<polygon points="114.7,624.5 181.2,575.5 204.9,555.9 180,573.8 	"></polygon>
	<polygon points="139.8,662.8 199.2,606 220.1,583.8 197.8,604.5 	"></polygon>
	<polygon points="180.7,689.2 233.4,624.1 251.6,598.9 231.7,622.8 	"></polygon>
	<polygon points="216.2,717.2 260.8,644.9 275.9,617.2 258.9,643.8 	"></polygon>
	<polygon points="260.6,731.3 294.7,655.4 305.9,626.5 292.8,654.5 	"></polygon>
	<polygon points="299.1,748.2 325.8,668.8 334.1,638.9 323.8,668.2 	"></polygon>
	<polygon points="344.2,757.3 360.1,675.1 364.4,644.3 358,674.8 	"></polygon>
	<polygon points="396.3,768.3 398.4,686.1 397.5,655.6 396.3,686.1 	"></polygon>
	<polygon points="436.1,769.9 429.6,685.7 425.4,654.6 427.4,685.9 	"></polygon>
	<polygon points="467.3,759.8 455.1,675.8 448.8,644.9 452.9,676.2 	"></polygon>
	<polygon points="500.2,750.9 480,670.1 470.9,640.5 478,670.7 	"></polygon>
	<polygon points="539,740.4 510.6,661.3 498.5,632.5 508.6,662 	"></polygon>
	<polygon points="567.6,724.3 531.8,648.6 517,621.2 529.9,649.5 	"></polygon>
	<polygon points="605.2,692.8 560.8,623.6 542.9,598.9 559,624.8 	"></polygon>
	<polygon points="634.3,675.3 582.6,609.6 562.1,586.3 581,611 	"></polygon>
	<polygon points="664.2,649.2 604.9,590.8 581.7,570.4 603.4,592.4 	"></polygon>
	<polygon points="696.5,621.6 632.4,569.6 607.5,551.6 631,571.2 	"></polygon>
	<polygon points="717.3,598.7 648.4,553.1 621.9,537.6 647.3,554.9 	"></polygon>
	<polygon points="726.5,552.9 652.4,513.5 624.2,500.4 651.5,515.5 	"></polygon>
	<polygon points="755.9,512.2 677.7,485.9 648.1,477.7 677,487.9 	"></polygon>
	<polygon points="752.4,478.6 672.2,457.4 642.1,451.2 671.7,459.5 	"></polygon>
	<polygon points="758.2,444.9 676.8,432 646.4,428.8 676.5,434.1 	"></polygon>
	<polygon points="770.5,425.6 688.7,416.6 658.1,414.9 688.5,418.7 	"></polygon>
	<polygon points="769,400.7 685.7,397 654.6,397.4 685.6,399.2 	"></polygon>
	<polygon points="767.9,451.7 685.3,438.2 654.4,434.9 685,440.4 	"></polygon>
	<polygon points="774.9,409.5 690.5,402.9 659.1,402.2 690.4,405.1 	"></polygon>
	<polygon points="780,371.7 696.7,374.9 665.9,377.8 696.8,377 	"></polygon>
	<polygon points="768.5,333.9 685.8,345.3 655.3,351.2 686.1,347.4 	"></polygon>
	<polygon points="753,301.5 670.6,321.2 640.3,330.2 671.1,323.3 	"></polygon>
	<polygon points="749.1,268.6 671.3,295.3 642.9,306.8 672,297.3 	"></polygon>
	<polygon points="724.5,219.6 651.8,258.7 625.6,274.7 652.8,260.5 	"></polygon>
	<polygon points="702.6,188.7 633.9,234.3 609.3,252.6 635.1,236 	"></polygon>
	<polygon points="684.4,150.6 619.3,203.4 596.2,224.4 620.6,205.1 	"></polygon>
	<polygon points="715.2,201.9 643.4,245.1 617.6,262.6 644.5,247 	"></polygon>
	<polygon points="657.4,132.3 598.6,190.2 577.9,212.9 600.1,191.7 	"></polygon>
	<polygon points="631.7,98 578.1,162.2 559.5,187.1 579.8,163.5 	"></polygon>
	<polygon points="587.6,82.7 542.7,153.6 527.4,180.8 544.5,154.7 	"></polygon>
	<polygon points="557.9,60.8 520.3,135.9 507.8,164.5 522.2,136.8 	"></polygon>
	<polygon points="524.6,44.8 494.9,122.7 485.4,152.2 496.9,123.4 	"></polygon>
	<polygon points="489.8,36.4 468.4,116.1 462,146.1 470.4,116.6 	"></polygon>
	<polygon points="456.2,29 442.9,110.7 439.6,141.3 445,111 	"></polygon>
	<polygon points="427.1,20.9 419.2,104.1 418,135.1 421.4,104.3 	"></polygon>
	<polygon points="395.3,19.9 395.8,103 397.6,133.9 397.9,103 	"></polygon>
	<polygon points="355.8,24.3 364.4,106.5 369.2,136.8 366.5,106.2 	"></polygon>
	<polygon points="320.5,28.6 334.7,111.4 341.6,141.9 336.8,111 	"></polygon>
	<polygon points="289.5,38.6 311.6,119.2 321.4,148.7 313.6,118.6 	"></polygon>
	<polygon points="256,53 287.6,129.7 300.9,157.5 289.6,128.9 	"></polygon>
	<polygon points="232.6,69.4 267.6,146.4 282.1,174.3 269.5,145.5 	"></polygon>
	<polygon points="196.5,86.2 242.6,154.9 261.1,179.5 244.3,153.7 	"></polygon>
	<polygon points="177.3,106.5 225.1,173.9 244.2,197.9 226.8,172.6 	"></polygon>
	<polygon points="139.8,137.7 196.7,199.3 219.1,221.1 198.3,197.9 	"></polygon>
	<polygon points="104,170 167.3,222.9 191.9,241.2 168.6,221.2 	"></polygon>
	<polygon points="78.4,208 149.9,253.3 177.3,268.6 151,251.4 	"></polygon>
	<polygon points="58,252 134.4,287.1 163.4,298.6 135.2,285.1 	"></polygon>
	<polygon points="42.3,294.8 122.4,319.3 152.6,326.7 123,317.2 	"></polygon>
	<polygon points="28,337.2 110.6,353.5 141.6,357.9 111,351.4 	"></polygon>
	<polygon points="20,376 103.9,384 135.2,385.3 104.1,381.8 	"></polygon>
	<polygon points="29.6,414.6 113.7,414.2 144.9,412.3 113.7,412.1 	"></polygon>
	<polygon points="31,457.9 112.5,446.7 142.5,440.9 112.1,444.6 	"></polygon>
	<polygon points="39.8,497.1 119.8,478 149.1,469.3 119.3,475.9 	"></polygon>
	<polygon points="55.2,539.9 132.1,510.7 160.1,498.3 131.3,508.7 	"></polygon>
	<polygon points="72.2,569.6 146.2,533 173,518 145.3,531.2 	"></polygon>
	<polygon points="88.3,609.8 158.1,566.6 183.2,549.2 157,564.8 	"></polygon>
	<polygon points="123.2,643.8 188.2,591.1 211.2,570.2 186.8,589.4 	"></polygon>
	<polygon points="152.5,678.2 211,616.8 231.5,592.8 209.4,615.3 	"></polygon>
	<polygon points="193.2,701 242.3,633.7 259.1,607.8 240.5,632.5 	"></polygon>
	<polygon points="229.7,726.5 269.7,652.9 283.1,624.8 267.8,651.9 	"></polygon>
	<polygon points="269.8,743.5 302.2,666.3 312.7,637.1 300.3,665.5 	"></polygon>
	<polygon points="312.7,761.9 334.1,682.6 340.4,652.7 332,682.1 	"></polygon>
	<polygon points="354.4,774.5 368,691.2 371.4,660 365.9,690.9 	"></polygon>
	<polygon points="388.9,768.5 394.1,683.8 394.3,652.3 391.9,683.7 	"></polygon>
	<polygon points="420.9,765.3 417.7,682 414.9,651.2 415.6,682.1 	"></polygon>
	<polygon points="463.8,767.6 452.4,684.4 446.4,653.7 450.2,684.7 	"></polygon>
	<polygon points="494.3,758.3 476.3,676.5 467.9,646.5 474.2,677 	"></polygon>
	<polygon points="532.5,736.9 505.8,659.1 494.3,630.8 503.8,659.8 	"></polygon>
	<polygon points="574.6,723 537.6,648.1 522.4,621 535.7,649 	"></polygon>
	<polygon points="603.8,707 560.1,636.3 542.4,610.9 558.3,637.4 	"></polygon>
	<polygon points="637.9,689 587.6,623.6 567.6,600.3 585.9,624.9 	"></polygon>
	<polygon points="657.6,657.5 601.6,596.9 579.6,575.5 600,598.3 	"></polygon>
	<polygon points="685.4,627.3 621.1,573.6 596.1,554.9 619.7,575.2 	"></polygon>
	<polygon points="724.5,594.8 654.7,550.7 628,535.7 653.6,552.5 	"></polygon>
	<polygon points="730.3,563.3 657.6,523.7 629.7,510.5 656.6,525.6 	"></polygon>
	<polygon points="742.5,529.9 666.6,498 637.7,487.7 665.8,500 	"></polygon>
	<polygon points="763.4,490.2 683.6,465.8 653.4,458.4 683,467.9 	"></polygon>
</g>
<g font-family="noto" id="svgTXT" font-size="60"><text x="50%" y="58.7%" fill="2EDF82" text-anchor="middle" font-weight="bolder" style="fill: rgb(46, 223, 130);"></text></g></svg>
