<!--?xml version="1.0" encoding="utf-8"?-->
<!-- Generator: Adobe Illustrator 22.1.0, SVG Export Plug-In . SVG Version: 6.00 Build 0)  -->
<svg version="1.1" id="_x33_" xmlns="http://www.w3.org/2000/svg" xmlns:xlink="http://www.w3.org/1999/xlink" x="0px" y="0px" viewBox="0 0 689.5 800" style="enable-background:new 0 0 689.5 800;" xml:space="preserve">
<style type="text/css">
	.st0{fill:#621D86;}
</style>
<g>
	<path class="st0" d="M472,548.3c-17.2-28.6,2.2-37.2,44.7-31.5c14,1.9,27.1-17.1,17.6-29.7c-16.4-21.9-8.6-48.3,5.5-45.9
		c39.4,6.6,37.2-17.5,30.6-28.4c-6.6-10.9,5.8-49.5,35-27.3c76.5,57.9,85.3,1.1,37.2-14.2c-63.4-20.2-76.5-85.3-15.3-87.5
		c56-2,41.5-65.6-8.7-39.4c-63.1,32.9-28-40.6-21.9-59c13.1-39.4-26.2-80.9-59-74.3c-45.1,9-50.9-16.8-74.3-48.1
		c-45.9-61.2-132-51-153-6.6C296,86.4,286.6,96.4,259.9,76c-27.9-21.3-56.8-6.6-56.8,28.4c0,20.9-29.8,64.1-98.9,26.2
		c-9.4-5.2-42.6-30.6-53.3-39.4c-22.1-18-37.2,14.2-17.2,26.2c24.6,14.8,50,22.1,71.3,37.7c45.9,33.5,46.8,115.6-5.3,98.1
		c-46.3-15.5-58.4,28.2-7,31.5c47.9,3.1,80.3,68.5,23,73.2c-26.2,2.2-19.7,45.9,10.9,41.5c33.8-4.8,39.3,43.7,4.4,56.8
		c-26.4,9.9,1.3,31.9,8.7,28.4c28.1-13.1,111-3.2,65.6,37.2c-19.7,17.5,8.7,50.3,28.4,19.7c6.7-10.3,69.9-27.9,76.5,21.9
		C332.1,727.5,476.4,780,476.4,780C402,714.4,375.8,677.2,375.8,611.7c0-67.9,64.4-82.7,76.5-50.3
		C458.9,578.9,485.1,570.1,472,548.3z" style="fill: rgb(236, 222, 144);"></path>
	<path class="st0" d="M649.1,93.5c19.7-4.4,26.2,32.8,2.2,32.8C627.2,126.3,629.4,97.9,649.1,93.5z" style="fill: rgb(236, 222, 144);"></path>
	<path class="st0" d="M603.2,471.7c-15.2-1.9-24-15.3-10.9-26.2C605.3,434.6,620.7,473.9,603.2,471.7z" style="fill: rgb(236, 222, 144);"></path>
	<path class="st0" d="M180.1,582.1c-13.5-3.8-13.1-24.1,0-24.1C193.2,558.1,195.4,586.5,180.1,582.1z" style="fill: rgb(236, 222, 144);"></path>
	<path class="st0" d="M185.6,44.3c-18,0.5-13-25.9,0-24C208.5,23.5,201.5,43.8,185.6,44.3z" style="fill: rgb(236, 222, 144);"></path>
	<path class="st0" d="M32.5,342.7c19.7-4.4,26.2,32.8,2.2,32.8S12.9,347.1,32.5,342.7z" style="fill: rgb(236, 222, 144);"></path>
</g>
</svg>
