<!--?xml version="1.0" encoding="utf-8"?-->
<!-- Generator: Adobe Illustrator 22.1.0, SVG Export Plug-In . SVG Version: 6.00 Build 0)  -->
<svg version="1.1" id="_x34_" xmlns="http://www.w3.org/2000/svg" xmlns:xlink="http://www.w3.org/1999/xlink" x="0px" y="0px" viewBox="0 0 800 548.7" style="width: 512px;" xml:space="preserve">
<style type="text/css">
	.st0{fill:#FFFFFF;}
</style>
<g>
	<path class="st0" d="M304.4,50.7c37,33.1,80.6,22,94.8-37C425,82,510.5,117,565.8,67.6c-15.5,51.7,42.7,50.5,124.3,3.8
		c-52.7,58.3-16,103.5,68.4,75c-78,43.7-67.5,107.8,21.5,114.2c-92.6,15.2-98.6,73.5-20.8,98.6c-84.4-0.5-115.7,65.5-79.4,98.1
		c-43.1-15.1-103.9,8.6-68.7,65.1c-58.4-45.8-118.8-50.7-117.7,5.6c-31.6-52.6-115.6-63.1-146.7-5.9c-1.4-51.4-65.8-53.1-106.9,12.9
		c20.5-73.8-37.3-105.3-117.8-66.6c60.7-59.7-7.6-104.3-102-93.9c94.8-37.9,102.4-114.6,4.8-142.8c110.3-3.7,107.6-55.3,63.6-87.5
		c42.1,11.4,67.1-13.6,34.8-80.1c85.1,52.1,130.1,55.3,92.2-5.1C274.4,104.6,319.4,109.8,304.4,50.7z" style="fill: rgb(236, 222, 144);"></path>
</g>
</svg>
